<svg
  xmlns="http://www.w3.org/2000/svg"
  viewBox="0 0 1400 650"
  fill="none"
  aria-hidden="true"
>
  <defs>
    <pattern id="water" width="145" height="38" patternUnits="userSpaceOnUse">
      <path
        d="M12 16h39m35 10h28"
        stroke="#e7f3ed"
        stroke-width="2"
        stroke-linecap="round"
      />
    </pattern>
  </defs>
  <g id="sky" data-depth="-8">
    <circle cx="1110" cy="145" r="52" fill="#e9c6a4" />
    <path
      d="M180 155h109m-92-10h40M980 98h76"
      stroke="#d8e2d6"
      stroke-width="2"
      stroke-linecap="round"
    />
    <path
      d="M830 141q6 -7 12 0q6 -7 12 0"
      fill="none"
      stroke="#5e807f"
      stroke-width="2"
      stroke-linecap="round"
    />
    <path
      d="M871.6 123q4.199999999999999 -4.8999999999999995 8.399999999999999 0q4.199999999999999 -4.8999999999999995 8.399999999999999 0"
      fill="none"
      stroke="#5e807f"
      stroke-width="2"
      stroke-linecap="round"
    />
    <path
      d="M214.8 95q3.5999999999999996 -4.2 7.199999999999999 0q3.5999999999999996 -4.2 7.199999999999999 0"
      fill="none"
      stroke="#5e807f"
      stroke-width="2"
      stroke-linecap="round"
    />
  </g>
  <g id="teaching-ground">
    <path d="M0 446Q248 419 651 455T1400 451V650H0Z" fill="#d9e1cc" />
    <path d="M0 588L541 455h332l527 195H0Z" fill="#eae5d6" />
    <path
      d="M301 568h651M539 499h266M608 650l-2-184M850 650l-102-182"
      stroke="#d7d6c5"
      stroke-width="2"
    />
  </g>
  <g transform="translate(326 86) scale(1.36)">
    <g id="teaching-rear" data-depth="10">
      <path d="M304 74h177v179H304Z" fill="#c7d1c8" />
      <path d="M296 68h193v12H296Z" fill="#4c747b" />
      <rect x="319" y="99" width="12" height="20" fill="#86a3a6" />
      <rect x="344" y="99" width="12" height="20" fill="#86a3a6" />
      <rect x="369" y="99" width="12" height="20" fill="#86a3a6" />
      <rect x="394" y="99" width="12" height="20" fill="#86a3a6" />
      <rect x="419" y="99" width="12" height="20" fill="#86a3a6" />
      <rect x="444" y="99" width="12" height="20" fill="#86a3a6" />
      <rect x="319" y="132" width="12" height="20" fill="#86a3a6" />
      <rect x="344" y="132" width="12" height="20" fill="#86a3a6" />
      <rect x="369" y="132" width="12" height="20" fill="#86a3a6" />
      <rect x="394" y="132" width="12" height="20" fill="#86a3a6" />
      <rect x="419" y="132" width="12" height="20" fill="#86a3a6" />
      <rect x="444" y="132" width="12" height="20" fill="#86a3a6" />
      <rect x="319" y="165" width="12" height="20" fill="#86a3a6" />
      <rect x="344" y="165" width="12" height="20" fill="#86a3a6" />
      <rect x="369" y="165" width="12" height="20" fill="#86a3a6" />
      <rect x="394" y="165" width="12" height="20" fill="#86a3a6" />
      <rect x="419" y="165" width="12" height="20" fill="#86a3a6" />
      <rect x="444" y="165" width="12" height="20" fill="#86a3a6" />
      <rect x="319" y="198" width="12" height="20" fill="#86a3a6" />
      <rect x="344" y="198" width="12" height="20" fill="#86a3a6" />
      <rect x="369" y="198" width="12" height="20" fill="#86a3a6" />
      <rect x="394" y="198" width="12" height="20" fill="#86a3a6" />
      <rect x="419" y="198" width="12" height="20" fill="#86a3a6" />
      <rect x="444" y="198" width="12" height="20" fill="#86a3a6" />
    </g>
    <g id="teaching-front" data-depth="24">
      <path d="M20 101h345v176H20Z" fill="#e1dbc9" />
      <path d="M11 94h365v12H11Z" fill="#69868a" />
      <path
        d="M20 146h345M20 182h345M20 218h345M20 254h345"
        stroke="#eeeade"
        stroke-width="5"
      />
      <rect x="40" y="118" width="15" height="23" fill="#ddb39a" />
      <rect x="67" y="118" width="15" height="23" fill="#7c9fa7" />
      <rect x="94" y="118" width="15" height="23" fill="#7c9fa7" />
      <rect x="121" y="118" width="15" height="23" fill="#7c9fa7" />
      <rect x="148" y="118" width="15" height="23" fill="#7c9fa7" />
      <rect x="175" y="118" width="15" height="23" fill="#7c9fa7" />
      <rect x="202" y="118" width="15" height="23" fill="#7c9fa7" />
      <rect x="229" y="118" width="15" height="23" fill="#ddb39a" />
      <rect x="256" y="118" width="15" height="23" fill="#7c9fa7" />
      <rect x="283" y="118" width="15" height="23" fill="#7c9fa7" />
      <rect x="310" y="118" width="15" height="23" fill="#7c9fa7" />
      <rect x="40" y="154" width="15" height="23" fill="#7c9fa7" />
      <rect x="67" y="154" width="15" height="23" fill="#7c9fa7" />
      <rect x="94" y="154" width="15" height="23" fill="#7c9fa7" />
      <rect x="121" y="154" width="15" height="23" fill="#7c9fa7" />
      <rect x="148" y="154" width="15" height="23" fill="#7c9fa7" />
      <rect x="175" y="154" width="15" height="23" fill="#7c9fa7" />
      <rect x="202" y="154" width="15" height="23" fill="#ddb39a" />
      <rect x="229" y="154" width="15" height="23" fill="#7c9fa7" />
      <rect x="256" y="154" width="15" height="23" fill="#7c9fa7" />
      <rect x="283" y="154" width="15" height="23" fill="#7c9fa7" />
      <rect x="310" y="154" width="15" height="23" fill="#7c9fa7" />
      <rect x="40" y="190" width="15" height="23" fill="#7c9fa7" />
      <rect x="67" y="190" width="15" height="23" fill="#7c9fa7" />
      <rect x="94" y="190" width="15" height="23" fill="#7c9fa7" />
      <rect x="121" y="190" width="15" height="23" fill="#7c9fa7" />
      <rect x="148" y="190" width="15" height="23" fill="#7c9fa7" />
      <rect x="175" y="190" width="15" height="23" fill="#ddb39a" />
      <rect x="202" y="190" width="15" height="23" fill="#7c9fa7" />
      <rect x="229" y="190" width="15" height="23" fill="#7c9fa7" />
      <rect x="256" y="190" width="15" height="23" fill="#7c9fa7" />
      <rect x="283" y="190" width="15" height="23" fill="#7c9fa7" />
      <rect x="310" y="190" width="15" height="23" fill="#7c9fa7" />
      <rect x="40" y="226" width="15" height="23" fill="#7c9fa7" />
      <rect x="67" y="226" width="15" height="23" fill="#7c9fa7" />
      <rect x="94" y="226" width="15" height="23" fill="#7c9fa7" />
      <rect x="121" y="226" width="15" height="23" fill="#7c9fa7" />
      <rect x="148" y="226" width="15" height="23" fill="#ddb39a" />
      <rect x="175" y="226" width="15" height="23" fill="#7c9fa7" />
      <rect x="202" y="226" width="15" height="23" fill="#7c9fa7" />
      <rect x="229" y="226" width="15" height="23" fill="#7c9fa7" />
      <rect x="256" y="226" width="15" height="23" fill="#7c9fa7" />
      <rect x="283" y="226" width="15" height="23" fill="#7c9fa7" />
      <rect x="310" y="226" width="15" height="23" fill="#7c9fa7" />
      <path d="M163 207h44v70h-44Z" fill="#466f7b" />
      <path d="M184 207v70" stroke="#a2bdbb" stroke-width="3" />
      <path d="M145 275h80l15 14H130Z" fill="#bfc2b5" />
      <path d="M364 169h60v27h-60Z" fill="#eae7d8" />
      <path d="M368 174h53v13h-53Z" fill="#90aaa9" />
      <path d="M422 111h80v178h-80Z" fill="#d6b29b" />
      <path d="M443 131h38v134h-38Z" fill="#7a989c" />
      <path
        d="M456 131v134M468 131v134M443 159h38M443 187h38M443 215h38M443 243h38"
        stroke="#d9d6c7"
        stroke-width="4"
      />
    </g>
  </g>
  <g id="teaching-trees" data-depth="30">
    <g transform="translate(182 497) scale(1.6)">
      <path d="M0 0V-82" stroke="#526f68" stroke-width="5" />
      <path
        d="M0-32l-18-19M0-50l17-18"
        fill="none"
        stroke="#526f68"
        stroke-width="3"
      />
      <path
        d="M-4-110C-47-114-51-57-26-40C-13-28 17-32 31-48C48-74 29-113-4-110Z"
        fill="#86a19a"
      />
      <path
        d="M0-36V-88M0-60l-15-13M0-50l14-16"
        fill="none"
        stroke="#58786f"
        stroke-width="2"
        opacity=".6"
      />
    </g>
    <g transform="translate(91 499) scale(1.25)">
      <path d="M0 0v-103" stroke="#69877a" stroke-width="4" />
      <path
        d="M0-133l-27 55h13l-28 46h30l-23 27h70L12-32h30L14-78h13Z"
        fill="#507e76"
      />
      <path d="M0-109v89" stroke="#d7e1ca" opacity=".5" stroke-width="2" />
    </g>
    <g transform="translate(279 468) scale(0.9)">
      <path d="M0 0V-82" stroke="#526f68" stroke-width="5" />
      <path
        d="M0-32l-18-19M0-50l17-18"
        fill="none"
        stroke="#526f68"
        stroke-width="3"
      />
      <path
        d="M-4-110C-47-114-51-57-26-40C-13-28 17-32 31-48C48-74 29-113-4-110Z"
        fill="#b0baa0"
      />
      <path
        d="M0-36V-88M0-60l-15-13M0-50l14-16"
        fill="none"
        stroke="#58786f"
        stroke-width="2"
        opacity=".6"
      />
    </g>
    <g transform="translate(1266 518) scale(1.55)">
      <path d="M0 0V-82" stroke="#526f68" stroke-width="5" />
      <path
        d="M0-32l-18-19M0-50l17-18"
        fill="none"
        stroke="#526f68"
        stroke-width="3"
      />
      <path
        d="M-4-110C-47-114-51-57-26-40C-13-28 17-32 31-48C48-74 29-113-4-110Z"
        fill="#86a19a"
      />
      <path
        d="M0-36V-88M0-60l-15-13M0-50l14-16"
        fill="none"
        stroke="#58786f"
        stroke-width="2"
        opacity=".6"
      />
    </g>
    <g transform="translate(1189 484) scale(1.05)">
      <path d="M0 0v-103" stroke="#69877a" stroke-width="4" />
      <path
        d="M0-133l-27 55h13l-28 46h30l-23 27h70L12-32h30L14-78h13Z"
        fill="#507e76"
      />
      <path d="M0-109v89" stroke="#d7e1ca" opacity=".5" stroke-width="2" />
    </g>
    <path
      d="M1024 496h88v9h-88M1037 505v17M1100 505v17"
      stroke="#72887b"
      stroke-width="4"
    />
    <g transform="translate(636 536) scale(1.1)">
      <circle cy="-35" r="5" fill="#365b60" />
      <path d="M-7-26Q0-32 7-26l3 19h-20Z" fill="#c88a73" />
      <path
        d="M-4-7l-2 16M4-7l3 16"
        stroke="#365b60"
        stroke-width="3"
        stroke-linecap="round"
      />
    </g>
    <g transform="translate(673 524) scale(1)">
      <circle cy="-35" r="5" fill="#365b60" />
      <path d="M-7-26Q0-32 7-26l3 19h-20Z" fill="#86a5a2" />
      <path
        d="M-4-7l-2 16M4-7l3 16"
        stroke="#365b60"
        stroke-width="3"
        stroke-linecap="round"
      />
    </g>
    <g transform="translate(878 569) scale(1.2)">
      <circle cy="-35" r="5" fill="#365b60" />
      <path d="M-7-26Q0-32 7-26l3 19h-20Z" fill="#5b8293" />
      <path
        d="M-4-7l-2 16M4-7l3 16"
        stroke="#365b60"
        stroke-width="3"
        stroke-linecap="round"
      />
    </g>
    <g stroke="#637e80" stroke-width="3">
      <circle cx="953" cy="552" r="14" />
      <circle cx="1004" cy="552" r="14" />
      <path d="M953 552l21-25 14 25h-35l31-15 8-21h11m-37 11h18" />
    </g>
  </g>
</svg>
